<svg width="559" height="330" viewBox="0 0 559 330" fill="none" xmlns="http://www.w3.org/2000/svg">
<path d="M312.396 327.567C273.626 322.147 244.946 311.567 205.446 287.937C188.466 277.717 187.726 277.477 183.296 278.707C116.956 297.907 73.8761 302.087 36.7161 293.107C-6.11393 282.647 -13.0039 246.587 24.1661 227.017C49.0261 213.847 87.6761 212.867 127.676 224.307C160.656 233.787 190.446 246.587 233.646 270.087C274.626 292.367 291.366 299.867 314.626 306.637C338.996 313.657 366.196 314.147 385.026 307.867C397.206 303.807 411.116 294.947 418.256 286.697C429.946 273.277 435.976 254.817 435.236 235.377C434.746 220.237 431.296 211.997 421.816 203.497C409.996 192.917 393.636 189.217 368.526 191.557C359.666 192.417 352.276 193.157 352.156 193.407C352.036 193.527 349.936 202.267 347.476 212.607C334.676 267.747 330.616 285.227 329.386 291.377C328.646 295.067 327.666 298.517 327.296 299.007C325.946 300.487 289.146 290.387 286.186 287.687C285.566 287.197 289.636 267.377 295.046 243.867C300.466 220.237 309.696 179.377 315.476 152.917C321.256 126.577 326.926 100.857 328.156 95.8072L330.246 86.6972L337.016 84.3572C348.956 80.2972 375.666 73.5272 379.966 73.5272C383.286 73.5272 383.906 73.8972 383.416 75.7472C365.076 139.377 353.996 183.067 356.096 183.067C362.006 183.067 381.206 177.157 391.176 172.357C400.896 167.677 404.466 165.097 413.326 156.107C429.576 139.737 437.206 122.997 437.076 103.427C437.076 95.0572 436.586 92.2272 433.756 86.4472C429.576 77.9572 421.936 71.9272 411.106 68.5972C396.706 64.1672 361.756 65.6472 341.326 71.5472C338.006 72.6572 332.466 74.2572 329.016 75.2372C325.696 76.2172 318.796 78.6872 313.756 80.7772C308.706 82.8672 304.526 84.4672 304.406 84.3472C304.156 84.0972 305.026 80.1672 306.256 75.3672L308.476 66.7472L317.336 63.9172C335.426 58.2572 355.246 55.0572 380.716 53.6972C408.776 52.0972 422.686 53.2072 440.286 58.2472C459.856 64.0272 473.146 74.2472 480.286 89.5072C483.736 96.6472 484.106 98.6172 483.976 108.587C483.856 122.007 481.026 130.247 472.656 141.447C463.056 154.247 444.346 166.927 424.406 173.937C411.356 178.617 410.126 180.087 418.376 181.197C463.666 186.977 488.036 208.887 485.576 241.507C482.996 275.967 454.556 305.137 409.516 319.417C386.746 326.677 375.426 328.527 349.336 329.017C332.716 329.267 321.396 328.897 312.416 327.537L312.396 327.567ZM123.476 283.257C146.986 279.197 174.306 272.057 174.926 269.837C175.296 268.607 143.666 251.987 129.756 246.087C102.556 234.397 85.4461 230.577 63.9061 231.317C49.1361 231.687 47.6561 232.057 39.9061 235.867C28.7061 241.407 24.3961 247.187 24.3961 256.917C24.3961 269.597 33.376 277.467 49.376 278.697C69.926 280.417 83.8361 270.817 91.8361 249.527C94.0561 243.377 94.666 242.757 97.866 242.877C101.686 243.127 126.296 252.477 129.866 255.187C131.956 256.667 131.836 256.907 129.006 259.987C121.376 268.237 100.456 280.537 91.2261 282.267C89.0061 282.637 86.546 283.867 85.686 284.977C84.206 286.697 85.5661 286.827 98.2361 286.087C105.986 285.597 117.436 284.367 123.466 283.257H123.476Z" fill="#EF598D"/>
<path d="M224.646 255.807C221.446 253.957 218.616 252.117 218.246 251.747C217.876 251.497 220.096 249.287 223.166 247.067C241.256 233.527 252.216 206.327 248.646 183.687C244.216 155.257 221.446 140.857 184.156 142.947C176.156 143.437 168.776 144.057 167.786 144.427C165.446 145.407 164.096 149.967 154.866 189.847C150.686 207.447 147.236 221.967 146.986 222.097C146.866 222.347 144.766 221.847 142.436 221.117C132.956 218.287 110.066 212.627 107.976 212.627C106.626 212.627 105.636 211.887 105.636 211.147C105.636 210.287 107.856 200.197 110.686 188.627C113.396 177.177 122.376 138.537 130.746 102.717C138.996 67.0271 146.376 37.2371 146.996 36.7471C148.226 35.5171 188.846 22.3471 195.246 21.1171C199.186 20.2571 199.306 20.3771 198.446 23.8271C197.956 25.7971 197.096 28.7471 196.476 30.4771C195.856 32.0771 189.586 55.0971 182.566 81.5571C175.546 108.017 169.396 130.667 168.906 131.897C168.046 134.117 168.536 134.117 174.686 133.377C184.656 132.027 202.376 125.747 212.106 120.087C216.906 117.257 225.276 110.607 230.816 105.197C246.446 90.0571 253.706 73.8171 253.836 54.3671C253.836 45.5071 253.346 43.4171 249.776 36.1471C243.496 23.3471 233.406 17.3171 213.716 14.4871C181.466 9.80712 134.456 20.1471 105.036 38.4871C92.1161 46.6071 75.9861 62.1171 69.9561 72.2071C64.4161 81.5571 59.6161 95.7171 58.3861 105.927C57.4061 115.037 59.3661 127.587 63.0661 134.977C66.2661 141.257 74.6361 149.627 81.1561 153.067L85.3361 155.287L77.3361 156.397C55.6761 159.477 34.2561 149.747 26.0161 132.887C23.1861 126.977 22.5661 124.027 22.1961 113.567C21.7061 102.857 22.0761 100.027 24.7761 91.9071C29.3261 78.3671 35.8561 68.1571 47.0561 56.8271C72.7761 31.1071 119.676 9.68711 165.206 2.79711C182.926 0.217114 219.726 -0.892887 232.656 0.827113C263.056 4.88711 285.946 16.0871 295.796 31.7171C299.616 37.7471 302.566 48.0871 302.566 55.2271C302.566 67.9071 294.686 85.2571 283.616 96.7071C273.156 107.787 253.336 119.477 235.496 125.257C221.586 129.687 221.716 130.677 236.726 133.137C275.496 139.417 296.546 156.517 298.506 183.477C300.106 204.647 289.156 225.197 268.106 240.827C257.026 249.077 237.586 259.407 233.396 259.287C231.916 259.287 227.976 257.687 224.656 255.837L224.646 255.807Z" fill="#EF598D"/>
<path d="M510.676 89.907C506.366 69.847 494.676 57.657 476.956 54.337C470.676 53.227 471.786 51.257 479.906 48.917C489.876 45.837 496.276 42.147 501.076 36.607C505.016 31.927 510.556 20.117 510.556 16.177C510.556 15.197 511.666 14.457 512.896 14.457C514.746 14.457 515.726 16.057 517.206 21.107C520.406 32.057 525.946 39.077 535.176 43.627C539.606 45.847 546.006 48.307 549.326 49.047C558.556 51.137 559.666 51.627 556.706 52.247C549.326 53.967 535.166 59.387 531.226 62.097C524.826 66.407 519.776 74.897 516.456 86.837C514.856 92.377 513.256 96.927 512.886 96.927C512.516 96.927 511.536 93.727 510.666 89.907H510.676Z" fill="#EF598D"/>
</svg>
